<svg xmlns="http://www.w3.org/2000/svg" width="73.323" height="76.128" viewBox="0 0 73.323 76.128"><defs><style>.a{fill:#fff;}</style></defs><g transform="translate(-9.432 0)"><g transform="translate(9.432 0)"><g transform="translate(0 0)"><path class="a" d="M90.309,313.483C90.247,313.483,90.372,313.491,90.309,313.483Z" transform="translate(-78.268 -266.868)"/><path class="a" d="M81.268,67.212A69.739,69.739,0,0,1,66.093,65.54a17.731,17.731,0,0,0,1.038-5.83A16.9,16.9,0,0,0,62.3,47.579,17.168,17.168,0,0,0,54.73,43.1l-.075-.019A49.337,49.337,0,0,1,35.27,32.575a1.487,1.487,0,1,0-1.961,2.236,53.132,53.132,0,0,0,6.5,4.877,17.259,17.259,0,0,1,1.919,8.447,1.487,1.487,0,0,0,1.442,1.531h.045A1.487,1.487,0,0,0,44.7,48.225a20.266,20.266,0,0,0-.77-6.171,52.33,52.33,0,0,0,7.655,3.2,17.213,17.213,0,0,1,2.548,8.2,1.487,1.487,0,0,0,1.484,1.415l.073,0A1.487,1.487,0,0,0,57.1,53.312a20.137,20.137,0,0,0-1.53-6.772,14.1,14.1,0,0,1,7.626,18.29A70.033,70.033,0,0,1,23.876,37.218a1.487,1.487,0,1,0-2.44,1.7A73.467,73.467,0,0,0,46.994,61.638a72.338,72.338,0,0,0,14.8,5.9,14.516,14.516,0,0,1-1.754,2.176,12.667,12.667,0,0,1-11.9,3.017A48.543,48.543,0,0,1,34.5,66.555a20.061,20.061,0,0,0,4.072-.839,1.487,1.487,0,0,0-.9-2.835,16.96,16.96,0,0,1-7.288.665,48.86,48.86,0,0,1-3.694-3.334A48.375,48.375,0,0,1,16.581,45.4a20.752,20.752,0,0,0,4.892,1.219,1.578,1.578,0,0,0,1.567-1.3,1.487,1.487,0,0,0-1.291-1.66,16.958,16.958,0,0,1-6.744-2.348A49,49,0,0,1,16.456,6.252a52.947,52.947,0,0,0,7.859,18.379,1.487,1.487,0,0,0,2.462-1.668A49.983,49.983,0,0,1,18.62,1.3,1.487,1.487,0,0,0,15.842.77,51.8,51.8,0,0,0,9.9,32.662,51.768,51.768,0,0,0,47.354,75.6a14.881,14.881,0,0,0,3.958.529,15.752,15.752,0,0,0,10.772-4.25c.017-.015.034-.029.05-.045s.026-.029.04-.044a17.3,17.3,0,0,0,2.639-3.485,73.139,73.139,0,0,0,16.455,1.881,1.487,1.487,0,0,0,0-2.974Z" transform="translate(-9.432 0)"/></g><path class="a" d="M136.9,188.535a1.488,1.488,0,1,0-1.051-.436A1.5,1.5,0,0,0,136.9,188.535Z" transform="translate(-116.681 -157.968)"/></g></g></svg>