<svg id="Layer_1" data-name="Layer 1" xmlns="http://www.w3.org/2000/svg" viewBox="0 0 73.32 76.13"><defs><style>.cls-1{fill:#3c009b;}</style></defs><path class="cls-1" d="M12,46.61Z" transform="translate(0 0)"/><path class="cls-1" d="M71.84,67.21a69.77,69.77,0,0,1-15.18-1.67,17.81,17.81,0,0,0,1-5.83,16.89,16.89,0,0,0-4.83-12.13A17.11,17.11,0,0,0,45.3,43.1l-.08,0a49.33,49.33,0,0,1-19.38-10.5,1.48,1.48,0,1,0-2,2.23h0a53.27,53.27,0,0,0,6.5,4.88,17.4,17.4,0,0,1,1.92,8.44,1.49,1.49,0,0,0,1.44,1.54h0a1.49,1.49,0,0,0,1.49-1.45,20.45,20.45,0,0,0-.77-6.17,51.72,51.72,0,0,0,7.65,3.2,17.2,17.2,0,0,1,2.55,8.2,1.49,1.49,0,0,0,1.49,1.42h.07a1.49,1.49,0,0,0,1.41-1.56,20.21,20.21,0,0,0-1.53-6.77,14.09,14.09,0,0,1,7.62,18.29A70.05,70.05,0,0,1,14.44,37.22,1.48,1.48,0,1,0,12,38.89v0A73.52,73.52,0,0,0,37.56,61.64a73,73,0,0,0,14.8,5.9,14.09,14.09,0,0,1-1.75,2.17,12.67,12.67,0,0,1-11.9,3,48.54,48.54,0,0,1-13.64-6.17,20.16,20.16,0,0,0,4.07-.84,1.49,1.49,0,1,0-.9-2.84h0a17,17,0,0,1-7.29.67,46.71,46.71,0,0,1-3.69-3.34A48.3,48.3,0,0,1,7.15,45.4,21.11,21.11,0,0,0,12,46.62a1.58,1.58,0,0,0,1.57-1.3,1.49,1.49,0,0,0-1.29-1.66,17.12,17.12,0,0,1-6.75-2.35A49,49,0,0,1,7,6.25a53,53,0,0,0,7.86,18.38A1.49,1.49,0,0,0,17.34,23,50,50,0,0,1,9.19,1.3,1.5,1.5,0,0,0,7.53,0,1.48,1.48,0,0,0,6.41.77,51.77,51.77,0,0,0,37.92,75.6a15.12,15.12,0,0,0,4,.53,15.77,15.77,0,0,0,10.77-4.25l.05,0,0,0a17.45,17.45,0,0,0,2.64-3.48,74.14,74.14,0,0,0,16.46,1.88,1.49,1.49,0,0,0,0-3Z" transform="translate(0 0)"/><path class="cls-1" d="M20.22,30.57a1.5,1.5,0,1,0-1-.44A1.48,1.48,0,0,0,20.22,30.57Z" transform="translate(0 0)"/></svg>