<svg id="Layer_1" data-name="Layer 1" xmlns="http://www.w3.org/2000/svg" viewBox="0 0 58 46.62"><defs><style>.cls-1{fill:#e8e2f2;}</style></defs><path class="cls-1" d="M9.53,28.54S9.57,28.55,9.53,28.54Z" transform="translate(0 0)"/><path class="cls-1" d="M56.82,41.15a70.69,70.69,0,0,1-12-1,8.62,8.62,0,0,0,.82-3.57,9.24,9.24,0,0,0-3.82-7.43,14.85,14.85,0,0,0-6-2.74h-.06A43.55,43.55,0,0,1,20.44,20a1.41,1.41,0,0,0-1.66.08.78.78,0,0,0,.11,1.29h0a43.1,43.1,0,0,0,5.14,3,8.65,8.65,0,0,1,1.52,5.17,1,1,0,0,0,1.14.94h0a1.08,1.08,0,0,0,1.18-.88,9.84,9.84,0,0,0-.61-3.78,48.56,48.56,0,0,0,6.05,2,8.91,8.91,0,0,1,2,5,1.08,1.08,0,0,0,1.17.87h.06c.65,0,1.15-.45,1.12-1A10,10,0,0,0,36.5,28.5c5.63,1.82,8.32,6.81,6,11.2-12.62-2.62-23.64-8.61-31.1-16.91a1.41,1.41,0,0,0-1.64-.24.79.79,0,0,0-.31,1.26l0,0A55.9,55.9,0,0,0,29.71,37.74a66.87,66.87,0,0,0,11.71,3.61A9.83,9.83,0,0,1,40,42.69a12.13,12.13,0,0,1-9.41,1.84,44.2,44.2,0,0,1-10.79-3.78,19.28,19.28,0,0,0,3.22-.51c.62-.15,1-.67.77-1.14a1.28,1.28,0,0,0-1.48-.6h0a17.18,17.18,0,0,1-5.77.41c-1-.64-2-1.32-2.92-2a30.64,30.64,0,0,1-8-9.07,20.54,20.54,0,0,0,3.87.75,1.21,1.21,0,0,0,1.23-.8c.09-.5-.37-.95-1-1A16.22,16.22,0,0,1,4.41,25.3,23.74,23.74,0,0,1,5.56,3.83a29.23,29.23,0,0,0,6.21,11.25,1.4,1.4,0,0,0,1.64.23.79.79,0,0,0,.31-1.25A26.85,26.85,0,0,1,7.27.8,1.15,1.15,0,0,0,6,0a1.21,1.21,0,0,0-.88.46A25.77,25.77,0,0,0,.37,20C2.57,32.56,14.22,42.9,30,46.29a14.21,14.21,0,0,0,3.13.32A14.53,14.53,0,0,0,41.65,44l0,0,0,0a11.41,11.41,0,0,0,2.09-2.14,74.31,74.31,0,0,0,13,1.16.94.94,0,1,0,0-1.83Z" transform="translate(0 0)"/><path class="cls-1" d="M16,18.72a1.07,1.07,0,0,0,1.18-.91A1.06,1.06,0,0,0,16,16.89a1.07,1.07,0,0,0-1.18.91.82.82,0,0,0,.34.65A1.37,1.37,0,0,0,16,18.72Z" transform="translate(0 0)"/></svg>