<svg xmlns="http://www.w3.org/2000/svg" width="15.654" height="15.58" viewBox="0 0 15.654 15.58">
  <g id="switch-wallet" transform="translate(0 -1.211)">
    <path id="Path_5831" data-name="Path 5831" d="M32.856,251.371l-4.923-3.877a.225.225,0,0,0-.364.177v2.578h-5.6a5.716,5.716,0,0,1-3.76-1.263.225.225,0,0,0-.368.211,5.638,5.638,0,0,0,.492,1.478,3.776,3.776,0,0,0,3.636,2.137h5.56v2.461a.225.225,0,0,0,.359.18l4.967-3.725a.225.225,0,0,0,0-.356Z" transform="translate(-17.288 -238.707)" fill="#1bbc86"/>
    <path id="Path_5832" data-name="Path 5832" d="M340.181,359.8l-.642-.505c-4.678,3.508-4.357,3.292-4.464,3.292a.225.225,0,0,1-.225-.225v1.34a.225.225,0,0,0,.359.18l4.967-3.725a.225.225,0,0,0,0-.356Z" transform="translate(-324.614 -347.135)" fill="#149362"/>
    <path id="Path_5833" data-name="Path 5833" d="M15.1,7.512A3.987,3.987,0,0,0,10.976,3.9H5.416V1.436a.225.225,0,0,0-.359-.18L.089,4.981a.225.225,0,0,0,0,.356c5.3,4.176,4.951,3.925,5.062,3.925a.225.225,0,0,0,.225-.225V6.459h5.6a5.716,5.716,0,0,1,3.76,1.263A.225.225,0,0,0,15.1,7.512Z" fill="#e22437"/>
    <g id="Group_2248" data-name="Group 2248" transform="translate(0 4.55)">
      <path id="Path_5834" data-name="Path 5834" d="M5.148,113.9c-.111,0,.216.232-4.483-3.469l-.575.431a.225.225,0,0,0,0,.356l4.923,3.877a.225.225,0,0,0,.364-.177v-1.243A.225.225,0,0,1,5.148,113.9Z" transform="translate(0 -110.428)" fill="#c61a33"/>
      <path id="Path_5835" data-name="Path 5835" d="M185.457,134.518a5.929,5.929,0,0,0-.275-.984,5.785,5.785,0,0,0-3.854-1.312H177.1a1.3,1.3,0,0,1-.267.02c-.816,0-1.05.449-1.107.8v.421h5.6a5.716,5.716,0,0,1,3.76,1.263A.225.225,0,0,0,185.457,134.518Z" transform="translate(-170.352 -131.556)" fill="#c61a33"/>
    </g>
    <path id="Path_5836" data-name="Path 5836" d="M26.307,298.539H21.969a3.8,3.8,0,0,1-3.809-2.518.224.224,0,0,0-.319.243,3.987,3.987,0,0,0,4.128,3.615h5.56v-.319A1.082,1.082,0,0,0,26.307,298.539Z" transform="translate(-17.292 -285.774)" fill="#149362"/>
  </g>
</svg>
