<svg xmlns="http://www.w3.org/2000/svg" width="37.3" height="36.773" viewBox="0 0 37.3 36.773">
  <g id="cashx-balance_" data-name="cashx-balance " transform="translate(0.001 -3.613)">
    <g id="Group_1469" data-name="Group 1469" transform="translate(7.599 3.613)">
      <path id="Path_4660" data-name="Path 4660" d="M128.927,8.706a60.263,60.263,0,0,1,4.356,4.855,3.347,3.347,0,0,1-.1,4.31,167.429,167.429,0,0,1-14.6,14.6,3.348,3.348,0,0,1-4.311.1,60.434,60.434,0,0,1-4.855-4.356q-1.725-1.725-3.309-3.589-.531-.625-1.046-1.265a3.348,3.348,0,0,1,.1-4.311,167.442,167.442,0,0,1,14.6-14.6,3.347,3.347,0,0,1,4.31-.1q.64.515,1.265,1.046,1.865,1.585,3.589,3.309Z" transform="translate(-104.32 -3.613)" fill="#f4dd45"/>
      <path id="Path_4661" data-name="Path 4661" d="M151.616,31.4,132.1,50.913q-1.725-1.725-3.309-3.589l19.235-19.235Q149.892,29.674,151.616,31.4Z" transform="translate(-127.009 -26.306)" fill="#9b9595"/>
    </g>
    <g id="Group_1470" data-name="Group 1470" transform="translate(-0.001 13.973)">
      <path id="Path_4662" data-name="Path 4662" d="M25.418,146.19a145.835,145.835,0,0,0-20.956,0A4.406,4.406,0,0,0,.386,150.2a100.785,100.785,0,0,0,0,17.641,4.406,4.406,0,0,0,4.076,4.009,145.835,145.835,0,0,0,20.956,0,4.406,4.406,0,0,0,4.076-4.009,100.785,100.785,0,0,0,0-17.641A4.406,4.406,0,0,0,25.418,146.19Z" transform="translate(0.001 -145.814)" fill="#845c47"/>
      <path id="Path_4663" data-name="Path 4663" d="M6.908,174.834q-1.223-.067-2.446-.155A4.406,4.406,0,0,1,.386,170.67a100.8,100.8,0,0,1,0-17.641,4.405,4.405,0,0,1,4.076-4.009q1.223-.088,2.445-.155a4.64,4.64,0,0,0-2.441,3.69,106.255,106.255,0,0,0,0,18.589A4.64,4.64,0,0,0,6.908,174.834Z" transform="translate(0.001 -148.642)" fill="#704d3b"/>
      <path id="Path_4664" data-name="Path 4664" d="M274.934,266.767H279.7a1.485,1.485,0,0,0,1.485-1.484v-7.155a1.484,1.484,0,0,0-1.485-1.484h-4.764a5.062,5.062,0,1,0,0,10.124Z" transform="translate(-250.212 -248.569)" fill="#b78b7a"/>
      <path id="Path_4665" data-name="Path 4665" d="M273.736,265.287a5.046,5.046,0,0,0,3.579,1.483h-2.381a5.062,5.062,0,0,1,0-10.125h2.381a5.062,5.062,0,0,0-3.579,8.642Z" transform="translate(-250.212 -248.571)" fill="#986b54"/>
      <circle id="Ellipse_64" data-name="Ellipse 64" cx="2.381" cy="2.381" r="2.381" transform="translate(22.342 10.755)" fill="#f4dd45"/>
      <path id="Path_4666" data-name="Path 4666" d="M309.723,298.119a2.381,2.381,0,1,1,0-4.573,2.381,2.381,0,0,0,0,4.573Z" transform="translate(-284.335 -282.696)" fill="#ffc250"/>
    </g>
  </g>
</svg>
