<svg id="Layer_1" data-name="Layer 1" xmlns="http://www.w3.org/2000/svg" viewBox="0 0 53.12 51.5"><defs><style>.cls-1{fill:#ff8900;}</style></defs><path class="cls-1" d="M24.85,52H3.59L24.35,34l1.16,1.33a2.07,2.07,0,0,0,1.58.72,2.1,2.1,0,0,0,2-1.45l4.56-13.91a2.1,2.1,0,0,0-.3-1.89,2.12,2.12,0,0,0-1.69-.87,1.58,1.58,0,0,0-.38,0L16.87,20.5a2.1,2.1,0,0,0-1.7,2.44,2,2,0,0,0,.48,1l1.14,1.31L.5,39.42V.5H24.85a36.62,36.62,0,0,1,11.7,1.8,26.45,26.45,0,0,1,9.09,5.14,22.81,22.81,0,0,1,5.88,8.11,26.94,26.94,0,0,1,2.1,10.7A26.77,26.77,0,0,1,51.52,37a22.81,22.81,0,0,1-5.88,8.11,26.45,26.45,0,0,1-9.09,5.14A36.62,36.62,0,0,1,24.85,52Z" transform="translate(-0.5 -0.5)"/></svg>