<svg id="wallet_2_" data-name="wallet (2)" xmlns="http://www.w3.org/2000/svg" width="51.057" height="46.22" viewBox="0 0 51.057 46.22">
  <path id="Path_4222" data-name="Path 4222" d="M82.124,48.946l-9.6,9.6H51.2V49.468L66.923,33.745a2.15,2.15,0,0,1,3.04,0L82.124,45.906A2.15,2.15,0,0,1,82.124,48.946Z" transform="translate(-46.094 -32.232)" fill="#81bc82"/>
  <path id="Path_4223" data-name="Path 4223" d="M81.655,99.063,71.3,109.419H56.589v-3.531L72.534,89.942a1.075,1.075,0,0,1,1.52,0l7.6,7.6A1.075,1.075,0,0,1,81.655,99.063Z" transform="translate(-50.946 -83.108)" fill="#699e69"/>
  <path id="Path_4224" data-name="Path 4224" d="M104.159,81.4l22.265-22.265a2.15,2.15,0,0,1,3.04,0L141.625,71.3a2.15,2.15,0,0,1,0,3.04L134.561,81.4Z" transform="translate(-93.772 -55.09)" fill="#ace5ac"/>
  <path id="Path_4225" data-name="Path 4225" d="M191.2,124.45l-7.824,7.824H165.135l16.945-16.945a1.075,1.075,0,0,1,1.52,0l7.6,7.6A1.075,1.075,0,0,1,191.2,124.45Z" transform="translate(-148.668 -105.963)" fill="#81bc82"/>
  <path id="Path_4226" data-name="Path 4226" d="M76.937,192.151v20.423a4.3,4.3,0,0,1-4.3,4.3h-38.7a4.3,4.3,0,0,1-4.3-4.3V192.151a4.3,4.3,0,0,1,4.3-4.3h38.7A4.3,4.3,0,0,1,76.937,192.151Z" transform="translate(-26.686 -171.537)" fill="#feaf50"/>
  <path id="Path_4227" data-name="Path 4227" d="M76.937,281.325v15.4a4.3,4.3,0,0,1-4.3,4.3h-38.7a4.3,4.3,0,0,1-4.3-4.3v-15.4Z" transform="translate(-26.686 -255.69)" fill="#fe9443"/>
  <path id="Path_4228" data-name="Path 4228" d="M19.908,417.434h0a3.225,3.225,0,0,1-3.225,3.225H9.159a1.075,1.075,0,0,1-1.075-1.075v-4.3a1.075,1.075,0,0,1,1.075-1.075h7.524A3.225,3.225,0,0,1,19.908,417.434Z" transform="translate(-7.278 -375.322)" fill="#dd6400"/>
  <path id="Path_4229" data-name="Path 4229" d="M19.723,457.325a3.225,3.225,0,0,1-3.04,2.15H9.159A1.075,1.075,0,0,1,8.084,458.4v-1.075Z" transform="translate(-7.278 -414.139)" fill="#a62c18"/>
  <path id="Path_4230" data-name="Path 4230" d="M343.306,371.094h8.6a1.075,1.075,0,0,1,1.075,1.075v3.225a1.075,1.075,0,0,1-1.075,1.075h-8.6a1.075,1.075,0,0,1-1.075-1.075v-3.225A1.075,1.075,0,0,1,343.306,371.094Z" transform="translate(-308.104 -336.507)" fill="#fef184"/>
  <path id="Path_4231" data-name="Path 4231" d="M9.4,62.388H1.883A1.885,1.885,0,0,0,0,64.271v4.318a1.885,1.885,0,0,0,1.883,1.883H9.4a4.041,4.041,0,0,0,4.036-4.036v-.011A4.041,4.041,0,0,0,9.4,62.388Zm2.424,4.048A2.427,2.427,0,0,1,9.4,68.86H1.883a.271.271,0,0,1-.271-.271V64.271A.271.271,0,0,1,1.883,64H9.4a2.427,2.427,0,0,1,2.424,2.424v.011ZM43.8,65.079A1.885,1.885,0,0,0,45.682,63.2v-3.24A1.885,1.885,0,0,0,43.8,58.073H35.2a1.885,1.885,0,0,0-1.883,1.883V63.2A1.885,1.885,0,0,0,35.2,65.079ZM34.934,63.2v-3.24a.271.271,0,0,1,.271-.271h8.6a.271.271,0,0,1,.271.271V63.2a.271.271,0,0,1-.271.271H35.2A.271.271,0,0,1,34.934,63.2ZM51.057,44.857V65.351a5.119,5.119,0,0,1-5.106,5.121H14.78a.806.806,0,1,1,0-1.612H45.951a3.5,3.5,0,0,0,3.493-3.508V44.857a3.5,3.5,0,0,0-3.493-3.508H7.255a3.5,3.5,0,0,0-3.493,3.508v15.55a.806.806,0,0,1-1.612,0V44.857a5.129,5.129,0,0,1,3.157-4.733l14.951-15a2.95,2.95,0,0,1,4.182,0l3.806,3.819A.806.806,0,0,1,27.1,30.078L23.3,26.259a1.338,1.338,0,0,0-1.9,0L7.969,39.736h3.8l9.244-9.276a1.878,1.878,0,0,1,2.662,0L25.1,31.882a.806.806,0,1,1-1.142,1.138L22.538,31.6a.266.266,0,0,0-.378,0l-8.11,8.138h6L32.081,27.662a2.95,2.95,0,0,1,4.182,0l9.562,9.6A.806.806,0,1,1,44.683,38.4l-9.562-9.6a1.338,1.338,0,0,0-1.9,0l-10.9,10.937h3.8L32.841,33A1.878,1.878,0,0,1,35.5,33l4.433,4.449a.806.806,0,0,1-1.142,1.138l-4.433-4.449a.266.266,0,0,0-.378,0l-5.578,5.6H45.951A5.119,5.119,0,0,1,51.057,44.857Z" transform="translate(0 -24.252)"/>
</svg>
