<svg xmlns="http://www.w3.org/2000/svg" width="205" height="152.752" viewBox="0 0 205 152.752"><defs><style>.a,.b{fill:#03d;}.a{stroke:rgba(0,0,0,0);stroke-miterlimit:10;}.b{font-size:40px;font-family:Montserrat-ExtraBold, Montserrat;font-weight:800;}</style></defs><g transform="translate(0 0.5)"><path class="a" d="M34.686,73.589H4.344L33.967,47.839l1.653,1.9a2.95,2.95,0,0,0,2.254,1.033,3,3,0,0,0,2.862-2.068l6.5-19.856a2.965,2.965,0,0,0-.419-2.69A3,3,0,0,0,44.4,24.914a3.091,3.091,0,0,0-.542.048L23.291,28.638a3,3,0,0,0-1.736,4.922l1.625,1.87L-.069,55.642V.089H34.686A52.235,52.235,0,0,1,51.378,2.657,37.585,37.585,0,0,1,64.349,10a32.509,32.509,0,0,1,8.4,11.575A38.267,38.267,0,0,1,75.741,36.84a38.264,38.264,0,0,1-2.989,15.266,32.508,32.508,0,0,1-8.4,11.575,37.585,37.585,0,0,1-12.971,7.342A52.236,52.236,0,0,1,34.686,73.589Z" transform="translate(64.069 -0.089)"/><text class="b" transform="translate(0 142.252)"><tspan x="0" y="0">Demopay</tspan></text></g></svg>