<?xml version="1.0" encoding="utf-8"?>
<!-- Generator: Adobe Illustrator 25.0.0, SVG Export Plug-In . SVG Version: 6.00 Build 0)  -->
<svg version="1.1" id="Layer_1" xmlns="http://www.w3.org/2000/svg" xmlns:xlink="http://www.w3.org/1999/xlink" x="0px" y="0px"
	 viewBox="0 0 205 152.8" style="enable-background:new 0 0 205 152.8;" xml:space="preserve">
<style type="text/css">
	.st0{fill:#FFFFFF;}
</style>
<g transform="translate(0 0.5)">
	<path class="st0" d="M104.8,122.3H74.5l29.6-25.7l1.7,1.9c0.6,0.7,1.4,1,2.3,1c1.3,0,2.5-0.8,2.9-2.1l6.5-19.9
		c0.3-0.9,0.1-1.9-0.4-2.7c-0.6-0.8-1.5-1.2-2.4-1.2c-0.2,0-0.4,0-0.5,0l-20.6,3.7c-1.6,0.3-2.7,1.8-2.4,3.5c0.1,0.5,0.3,1,0.7,1.4
		l1.6,1.9l-23.2,20.2V48.8h34.8c5.7-0.1,11.3,0.8,16.7,2.6c4.8,1.6,9.2,4.1,13,7.3c3.6,3.2,6.5,7.1,8.4,11.6c2,4.8,3.1,10,3,15.3
		c0.1,5.2-1,10.4-3,15.3c-1.9,4.4-4.8,8.4-8.4,11.6c-3.8,3.3-8.2,5.8-13,7.3C116.1,121.5,110.5,122.4,104.8,122.3z"/>
</g>
</svg>
