<svg id="earnings" xmlns="http://www.w3.org/2000/svg" width="31.765" height="38.708" viewBox="0 0 31.765 38.708">
  <path id="Path_4693" data-name="Path 4693" d="M125.277,1.388C122.6-.08,122.1,3.458,119.4,3.112,116.522,2.743,116.983,0,114.009,0s-2.512,2.743-5.394,3.112c-2.7.346-3.193-3.192-5.873-1.724-3.4,1.862,2.673,8.9,2.673,8.9l8.608.961,8.787-.961s5.868-7.034,2.467-8.9Z" transform="translate(-97.226)" fill="#d6694b"/>
  <g id="Group_1473" data-name="Group 1473" transform="translate(15.636 1.03)">
    <path id="Path_4694" data-name="Path 4694" d="M256.755,13.527a2.072,2.072,0,0,0-2.341,0c3.39,1.866-2.472,8.894-2.472,8.894l-7.6.832,1.161.13,8.787-.961S260.156,15.389,256.755,13.527Z" transform="translate(-244.34 -13.168)" fill="#c4573a"/>
  </g>
  <path id="Path_4695" data-name="Path 4695" d="M80.147,161.6a15.611,15.611,0,0,0-5.175,11.384,14.687,14.687,0,0,0,29.374,0,15.819,15.819,0,0,0-5.4-11.384" transform="translate(-72.581 -148.966)" fill="#d6694b"/>
  <path id="Path_4696" data-name="Path 4696" d="M258.254,161.6h-2.346a15.819,15.819,0,0,1,5.4,11.384,14.688,14.688,0,0,1-13.514,14.64q.581.046,1.173.047a14.687,14.687,0,0,0,14.687-14.687A15.818,15.818,0,0,0,258.254,161.6Z" transform="translate(-231.884 -148.966)" fill="#c4573a"/>
  <circle id="Ellipse_69" data-name="Ellipse 69" cx="5.351" cy="5.351" r="5.351" transform="translate(11.281 28.007)" fill="#e8b800"/>
  <circle id="Ellipse_70" data-name="Ellipse 70" cx="5.351" cy="5.351" r="5.351" transform="translate(0 28.007)" fill="#e8b800"/>
  <circle id="Ellipse_71" data-name="Ellipse 71" cx="3.074" cy="3.074" r="3.074" transform="translate(13.558 30.284)" fill="#fed402"/>
  <circle id="Ellipse_72" data-name="Ellipse 72" cx="3.074" cy="3.074" r="3.074" transform="translate(2.277 30.284)" fill="#fed402"/>
  <circle id="Ellipse_73" data-name="Ellipse 73" cx="5.351" cy="5.351" r="5.351" transform="translate(5.351 28.007)" fill="#e8b800"/>
  <circle id="Ellipse_74" data-name="Ellipse 74" cx="3.074" cy="3.074" r="3.074" transform="translate(7.628 30.284)" fill="#fed402"/>
  <g id="Group_1474" data-name="Group 1474" transform="translate(7.027 6.707)">
    <path id="Path_4697" data-name="Path 4697" d="M141.737,153.584a.587.587,0,0,1-.556-.774,6.751,6.751,0,0,1,3.6-4.03.586.586,0,1,1,.5,1.061,5.6,5.6,0,0,0-2.985,3.344A.587.587,0,0,1,141.737,153.584Z" transform="translate(-140.61 -143.801)" fill="#a74b30"/>
    <path id="Path_4698" data-name="Path 4698" d="M210.185,152.206a.587.587,0,0,1-.554-.779,6.837,6.837,0,0,1,1.57-2.523.586.586,0,1,1,.843.816,5.673,5.673,0,0,0-1.3,2.092A.587.587,0,0,1,210.185,152.206Z" transform="translate(-203.706 -143.802)" fill="#a74b30"/>
    <path id="Path_4699" data-name="Path 4699" d="M331.22,153.585a.587.587,0,0,1-.556-.4,5.6,5.6,0,0,0-2.985-3.344.586.586,0,1,1,.5-1.061,6.751,6.751,0,0,1,3.6,4.03.587.587,0,0,1-.556.774Z" transform="translate(-312.242 -143.801)" fill="#a74b30"/>
    <path id="Path_4700" data-name="Path 4700" d="M284.618,152.207a.587.587,0,0,1-.554-.395,5.674,5.674,0,0,0-1.3-2.092.586.586,0,0,1,.843-.816,6.838,6.838,0,0,1,1.57,2.523.587.587,0,0,1-.554.779Z" transform="translate(-270.993 -143.803)" fill="#a74b30"/>
    <path id="Path_4701" data-name="Path 4701" d="M176.085,89.95a.585.585,0,0,1-.451-.211,23.837,23.837,0,0,1-2.127-3.092.586.586,0,1,1,1.019-.581,22.993,22.993,0,0,0,2.009,2.922.586.586,0,0,1-.451.962Z" transform="translate(-170.367 -85.77)" fill="#a74b30"/>
    <path id="Path_4702" data-name="Path 4702" d="M246.626,97.388a.587.587,0,0,1-.565-.43c-.2-.726-.361-1.43-.477-2.092a.587.587,0,0,1,1.155-.2c.11.626.262,1.292.452,1.982a.587.587,0,0,1-.566.743Z" transform="translate(-236.87 -93.52)" fill="#a74b30"/>
    <path id="Path_4703" data-name="Path 4703" d="M303.752,89.949a.587.587,0,0,1-.451-.962,23.072,23.072,0,0,0,2.009-2.923.586.586,0,0,1,1.019.581,23.831,23.831,0,0,1-2.127,3.092A.585.585,0,0,1,303.752,89.949Z" transform="translate(-289.957 -85.769)" fill="#a74b30"/>
    <path id="Path_4704" data-name="Path 4704" d="M152.831,129.815H135.769a1.525,1.525,0,0,1-1.521-1.521v-.047a1.525,1.525,0,0,1,1.521-1.521h17.062a1.525,1.525,0,0,1,1.521,1.521v.047A1.525,1.525,0,0,1,152.831,129.815Z" transform="translate(-134.248 -123.523)" fill="#a74b30"/>
  </g>
</svg>
