<svg id="status-right-arrow" xmlns="http://www.w3.org/2000/svg" width="37.3" height="38.894" viewBox="0 0 37.3 38.894">
  <path id="Path_4667" data-name="Path 4667" d="M100.827,87.105,88.587,99.346a1.015,1.015,0,0,1-.717.3H74.761a1.013,1.013,0,0,1-.717-1.73c3.743-3.747,12.269-12.276,12.269-12.276S77.786,77.11,74.044,73.363a1.013,1.013,0,0,1,.717-1.73H87.87a1.015,1.015,0,0,1,.717.3l5.555,5.555,6.685,6.684A2.078,2.078,0,0,1,100.827,87.105Z" transform="translate(-68.94 -66.191)" fill="#ffce00"/>
  <path id="Path_4668" data-name="Path 4668" d="M93.161,87.105,80.921,99.346a1.015,1.015,0,0,1-.717.3H74.761a1.013,1.013,0,0,1-.717-1.73c3.743-3.747,12.269-12.276,12.269-12.276S77.786,77.11,74.044,73.363a1.013,1.013,0,0,1,.717-1.73H80.2a1.015,1.015,0,0,1,.717.3l12.24,12.238A2.078,2.078,0,0,1,93.161,87.105Z" transform="translate(-68.94 -66.191)" fill="#ffa81e"/>
  <path id="Path_4669" data-name="Path 4669" d="M132.939,87.106,120.7,99.347a1.015,1.015,0,0,1-.717.3h-3.189a1.015,1.015,0,0,0,.717-.3L130.1,86.752a1.326,1.326,0,0,0,0-2.229L117.51,71.931a1.015,1.015,0,0,0-.717-.3h3.189a1.015,1.015,0,0,1,.717.3l12.24,12.238A2.078,2.078,0,0,1,132.939,87.106Z" transform="translate(-108.718 -66.192)" fill="#f90"/>
  <g id="Group_1471" data-name="Group 1471" transform="translate(29.434 37.115)">
    <path id="Path_4670" data-name="Path 4670" d="M487.08,488.583a.57.57,0,0,0-.57.57v.639a.57.57,0,1,0,1.139,0v-.639A.57.57,0,0,0,487.08,488.583Z" transform="translate(-479.784 -488.583)" fill="#ffa81e"/>
    <path id="Path_4671" data-name="Path 4671" d="M442.808,488.583a.57.57,0,0,0-.57.57v.639a.57.57,0,1,0,1.139,0v-.639A.57.57,0,0,0,442.808,488.583Z" transform="translate(-438.875 -488.583)" fill="#ffa81e"/>
    <path id="Path_4672" data-name="Path 4672" d="M398.535,488.583a.57.57,0,0,0-.57.57v.639a.57.57,0,1,0,1.139,0v-.639A.57.57,0,0,0,398.535,488.583Z" transform="translate(-397.965 -488.583)" fill="#ffa81e"/>
  </g>
  <g id="Group_1472" data-name="Group 1472">
    <path id="Path_4673" data-name="Path 4673" d="M99.6,1.779a.57.57,0,0,0,.57-.57V.57a.57.57,0,0,0-1.139,0v.639A.57.57,0,0,0,99.6,1.779Z" transform="translate(-92.309)" fill="#f90"/>
    <path id="Path_4674" data-name="Path 4674" d="M55.9,1.209V.57a.57.57,0,1,0-1.139,0v.639a.57.57,0,1,0,1.139,0Z" transform="translate(-51.399)" fill="#f90"/>
    <path id="Path_4675" data-name="Path 4675" d="M11.06,0a.57.57,0,0,0-.57.57v.639a.57.57,0,0,0,1.139,0V.57A.57.57,0,0,0,11.06,0Z" transform="translate(-10.49)" fill="#f90"/>
  </g>
</svg>
